<svg width="1460" height="470" viewBox="0 0 1460 470" fill="none" xmlns="http://www.w3.org/2000/svg">
<path d="M300.838 130.931C302.473 127.542 307.3 127.542 308.934 130.931L331.299 177.323C318.98 199.408 306.788 217.641 297.623 218.875C286.53 220.368 331.35 215.941 363.399 208.931L403.756 228.388L408.841 230.839C412.231 232.473 412.231 237.3 408.841 238.934L403.756 241.385L342.846 270.75C341.93 271.191 341.191 271.931 340.75 272.846L311.384 333.757L308.934 338.842L308.772 339.149C307.059 342.129 302.714 342.129 301 339.149L300.838 338.842L298.387 333.757L281.474 298.674C292.107 276.738 302.788 258.795 311.604 257.05C321.077 255.174 289.266 260.261 260.089 267.454L200.931 238.934C197.542 237.3 197.542 232.473 200.931 230.839L206.015 228.388L266.926 199.024C267.785 198.61 268.489 197.934 268.937 197.096L269.024 196.927L300.838 130.931Z" fill="#8A56FC"/>
<g filter="url(#filter0_d_290_12)">
<path d="M549.454 268.792V226.441H551.393L600.887 161.741H641.095L589.458 228.38H580.681L549.454 268.792ZM513.124 309V161.741H550.576V309H513.124ZM599.969 309L555.985 239.503L583.232 215.521L644.055 309H599.969ZM655.586 309V161.741H693.039V278.895H753.963V309H655.586ZM762.944 309L812.541 161.741H847.034V193.785H835.094L802.335 309H762.944ZM791.926 276.752L800.294 249.708H870.709L879.078 276.752H791.926ZM868.668 309L835.808 193.785V161.741H858.463L908.06 309H868.668ZM974.291 311.653C962.045 311.653 951.398 309.918 942.349 306.449C933.369 302.911 926.327 297.842 921.225 291.243C916.19 284.644 913.367 276.65 912.754 267.261L912.652 265.424H947.452L947.656 266.445C948.336 269.642 949.901 272.432 952.35 274.813C954.867 277.126 958.065 278.963 961.943 280.324C965.821 281.616 970.141 282.263 974.903 282.263C979.87 282.263 984.122 281.616 987.66 280.324C991.265 278.963 994.055 277.126 996.028 274.813C998.001 272.5 998.987 269.812 998.987 266.751V266.649C998.987 262.499 997.184 259.301 993.579 257.056C989.973 254.743 983.85 252.77 975.209 251.137L960.106 248.178C945.547 245.456 934.457 240.558 926.837 233.482C919.286 226.339 915.51 217.12 915.51 205.827V205.725C915.51 196.268 918.027 188.07 923.062 181.13C928.096 174.123 935.001 168.714 943.778 164.904C952.622 161.026 962.657 159.087 973.883 159.087C986.197 159.087 996.674 160.924 1005.31 164.598C1013.95 168.204 1020.62 173.306 1025.32 179.906C1030.08 186.505 1032.66 194.261 1033.07 203.173L1033.17 205.316H998.375L998.273 204.194C997.865 200.928 996.606 198.139 994.497 195.826C992.388 193.513 989.599 191.71 986.129 190.417C982.659 189.124 978.679 188.478 974.189 188.478C969.631 188.478 965.753 189.124 962.555 190.417C959.358 191.71 956.908 193.479 955.208 195.724C953.575 197.901 952.758 200.384 952.758 203.173V203.275C952.758 207.221 954.561 210.351 958.167 212.664C961.773 214.977 967.522 216.882 975.414 218.379L990.517 221.236C1006.16 224.23 1017.7 229.06 1025.11 235.728C1032.53 242.395 1036.24 251.647 1036.24 263.485V263.587C1036.24 273.384 1033.79 281.889 1028.89 289.1C1023.99 296.312 1016.91 301.89 1007.66 305.836C998.409 309.714 987.285 311.653 974.291 311.653ZM1083.69 309V191.846H1043.07V161.741H1161.66V191.846H1121.14V309H1083.69Z" fill="#8A56FC"/>
</g>
<defs>
<filter id="filter0_d_290_12" x="504.124" y="159.087" width="657.533" height="160.566" filterUnits="userSpaceOnUse" color-interpolation-filters="sRGB">
<feFlood flood-opacity="0" result="BackgroundImageFix"/>
<feColorMatrix in="SourceAlpha" type="matrix" values="0 0 0 0 0 0 0 0 0 0 0 0 0 0 0 0 0 0 127 0" result="hardAlpha"/>
<feOffset dx="-5" dy="4"/>
<feGaussianBlur stdDeviation="2"/>
<feComposite in2="hardAlpha" operator="out"/>
<feColorMatrix type="matrix" values="0 0 0 0 0 0 0 0 0 0 0 0 0 0 0 0 0 0 0.25 0"/>
<feBlend mode="normal" in2="BackgroundImageFix" result="effect1_dropShadow_290_12"/>
<feBlend mode="normal" in="SourceGraphic" in2="effect1_dropShadow_290_12" result="shape"/>
</filter>
</defs>
</svg>
