<svg width="1460" height="470" viewBox="0 0 1460 470" fill="none" xmlns="http://www.w3.org/2000/svg">
<path d="M367 132H227C199.938 132 178 153.938 178 181V321C178 348.062 199.938 370 227 370H367C394.062 370 416 348.062 416 321V181C416 153.938 394.062 132 367 132Z" fill="#101010"/>
<path d="M296.769 220.159L323.279 235.465V266.076L296.769 281.381L270.26 266.076V235.465L296.769 220.159Z" fill="white"/>
<path d="M237.996 220.159L264.506 235.465V266.076L237.996 281.381L211.487 266.076V235.465L237.996 220.159Z" fill="white"/>
<path d="M355.542 220.159L382.051 235.465V266.076L355.542 281.381L329.032 266.076V235.465L355.542 220.159Z" fill="white"/>
<path d="M326.155 171.182L352.665 186.488V217.099L326.155 232.404L299.646 217.099V186.488L326.155 171.182Z" fill="white"/>
<path d="M267.383 171.182L293.892 186.488V217.099L267.383 232.404L240.873 217.099V186.488L267.383 171.182Z" fill="white"/>
<path d="M267.383 269.137L293.892 284.442V315.053L267.383 330.358L240.873 315.053V284.442L267.383 269.137Z" fill="white"/>
<path d="M323.707 269.137L350.216 284.442V315.053L323.707 330.358L297.197 315.053V284.442L323.707 269.137Z" fill="white"/>
<g filter="url(#filter0_f_210_2)">
<path d="M494.86 302V163.4H558.22C570.892 163.4 581.782 165.446 590.89 169.538C600.13 173.63 607.258 179.57 612.274 187.358C617.29 195.014 619.798 204.122 619.798 214.682C619.798 225.11 617.29 234.152 612.274 241.808C607.258 249.464 600.13 255.404 590.89 259.628C581.782 263.72 570.892 265.766 558.22 265.766H516.64L534.064 248.738V302H494.86ZM534.064 252.896L516.64 234.878H555.844C564.028 234.878 570.1 233.096 574.06 229.532C578.152 225.968 580.198 221.018 580.198 214.682C580.198 208.214 578.152 203.198 574.06 199.634C570.1 196.07 564.028 194.288 555.844 194.288H516.64L534.064 176.27V252.896ZM696.733 303.782C684.985 303.782 674.557 301.406 665.449 296.654C656.341 291.902 649.147 285.368 643.867 277.052C638.719 268.604 636.145 258.968 636.145 248.144C636.145 237.32 638.719 227.75 643.867 219.434C649.147 211.118 656.341 204.65 665.449 200.03C674.557 195.278 684.985 192.902 696.733 192.902C708.481 192.902 718.909 195.278 728.017 200.03C737.257 204.65 744.451 211.118 749.599 219.434C754.747 227.75 757.321 237.32 757.321 248.144C757.321 258.968 754.747 268.604 749.599 277.052C744.451 285.368 737.257 291.902 728.017 296.654C718.909 301.406 708.481 303.782 696.733 303.782ZM696.733 273.884C701.089 273.884 704.917 272.894 708.217 270.914C711.649 268.934 714.355 266.03 716.335 262.202C718.315 258.242 719.305 253.556 719.305 248.144C719.305 242.732 718.315 238.178 716.335 234.482C714.355 230.654 711.649 227.75 708.217 225.77C704.917 223.79 701.089 222.8 696.733 222.8C692.509 222.8 688.681 223.79 685.249 225.77C681.949 227.75 679.243 230.654 677.131 234.482C675.151 238.178 674.161 242.732 674.161 248.144C674.161 253.556 675.151 258.242 677.131 262.202C679.243 266.03 681.949 268.934 685.249 270.914C688.681 272.894 692.509 273.884 696.733 273.884ZM780.688 302V155.084H818.308V302H780.688ZM848.697 302V155.084H886.317V302H848.697ZM972.937 303.782C960.265 303.782 949.177 301.406 939.673 296.654C930.301 291.77 922.975 285.17 917.695 276.854C912.547 268.406 909.973 258.836 909.973 248.144C909.973 237.452 912.481 227.948 917.497 219.632C922.645 211.184 929.707 204.65 938.683 200.03C947.659 195.278 957.757 192.902 968.977 192.902C979.537 192.902 989.173 195.08 997.885 199.436C1006.6 203.66 1013.53 209.93 1018.68 218.246C1023.82 226.562 1026.4 236.66 1026.4 248.54C1026.4 249.86 1026.33 251.378 1026.2 253.094C1026.07 254.81 1025.94 256.394 1025.8 257.846H940.861V238.046H1005.81L991.549 243.59C991.681 238.706 990.757 234.482 988.777 230.918C986.929 227.354 984.289 224.582 980.857 222.602C977.557 220.622 973.663 219.632 969.175 219.632C964.687 219.632 960.727 220.622 957.295 222.602C953.995 224.582 951.421 227.42 949.573 231.116C947.725 234.68 946.801 238.904 946.801 243.788V249.53C946.801 254.81 947.857 259.364 949.969 263.192C952.213 267.02 955.381 269.99 959.473 272.102C963.565 274.082 968.449 275.072 974.125 275.072C979.405 275.072 983.893 274.346 987.589 272.894C991.417 271.31 995.179 268.934 998.875 265.766L1018.68 286.358C1013.53 292.034 1007.19 296.39 999.667 299.426C992.143 302.33 983.233 303.782 972.937 303.782ZM1049.68 302V194.684H1085.52V225.176L1078.59 216.266C1082.68 208.478 1088.29 202.67 1095.42 198.842C1102.55 194.882 1110.6 192.902 1119.58 192.902C1127.89 192.902 1135.42 194.618 1142.15 198.05C1148.88 201.35 1154.16 206.498 1157.99 213.494C1161.95 220.49 1163.93 229.532 1163.93 240.62V302H1126.31V246.758C1126.31 239.102 1124.72 233.558 1121.56 230.126C1118.52 226.562 1114.23 224.78 1108.69 224.78C1104.73 224.78 1101.1 225.704 1097.8 227.552C1094.5 229.268 1091.92 231.974 1090.07 235.67C1088.23 239.366 1087.3 244.184 1087.3 250.124V302H1049.68ZM1232.49 303.782C1223.39 303.782 1214.48 302.726 1205.76 300.614C1197.18 298.502 1190.25 295.862 1184.97 292.694L1196.26 266.954C1201.28 269.99 1207.15 272.432 1213.88 274.28C1220.61 275.996 1227.21 276.854 1233.68 276.854C1240.02 276.854 1244.37 276.194 1246.75 274.874C1249.26 273.554 1250.51 271.772 1250.51 269.528C1250.51 267.416 1249.32 265.898 1246.95 264.974C1244.7 263.918 1241.67 263.126 1237.84 262.598C1234.14 262.07 1230.05 261.476 1225.56 260.816C1221.08 260.156 1216.52 259.298 1211.9 258.242C1207.41 257.054 1203.26 255.338 1199.43 253.094C1195.73 250.718 1192.76 247.55 1190.52 243.59C1188.27 239.63 1187.15 234.614 1187.15 228.542C1187.15 221.678 1189.13 215.606 1193.09 210.326C1197.18 204.914 1203.12 200.69 1210.91 197.654C1218.7 194.486 1228.2 192.902 1239.42 192.902C1246.95 192.902 1254.54 193.694 1262.19 195.278C1269.98 196.73 1276.52 198.974 1281.8 202.01L1270.51 227.552C1265.23 224.516 1259.95 222.47 1254.67 221.414C1249.39 220.226 1244.37 219.632 1239.62 219.632C1233.29 219.632 1228.8 220.358 1226.16 221.81C1223.65 223.262 1222.4 225.044 1222.4 227.156C1222.4 229.268 1223.52 230.918 1225.76 232.106C1228.01 233.162 1230.98 234.02 1234.67 234.68C1238.5 235.208 1242.66 235.802 1247.15 236.462C1251.63 236.99 1256.12 237.848 1260.61 239.036C1265.23 240.224 1269.39 242.006 1273.08 244.382C1276.91 246.626 1279.95 249.728 1282.19 253.688C1284.44 257.516 1285.56 262.466 1285.56 268.538C1285.56 275.138 1283.51 281.078 1279.42 286.358C1275.46 291.638 1269.52 295.862 1261.6 299.03C1253.81 302.198 1244.11 303.782 1232.49 303.782Z" fill="black"/>
</g>
<defs>
<filter id="filter0_f_210_2" x="490.86" y="151.084" width="798.697" height="156.698" filterUnits="userSpaceOnUse" color-interpolation-filters="sRGB">
<feFlood flood-opacity="0" result="BackgroundImageFix"/>
<feBlend mode="normal" in="SourceGraphic" in2="BackgroundImageFix" result="shape"/>
<feGaussianBlur stdDeviation="2" result="effect1_foregroundBlur_210_2"/>
</filter>
</defs>
</svg>
